# xmcd
# Copyright (C) 1995-1998 Ti Kan
#
# Track frame offsets:
#       150
#       12617
#       28619
#       45909
#       51597
#       73102
#       87583
#       108817
#       124404
#       139408
#       155906
#       160847
#       180220
#       210606
#       243989
#       263530
#
# Disc length: 3848 seconds
#
# Revision: 0
# Processed by: cddbd v1.5.2PL0 Copyright (c) Steve Scherf et al.
# Submitted via: CD-Import v1.0
#
DISCID=e10f0610
DTITLE=Mew - And The Glasses Handed Kites
DYEAR=1900
DGENRE=
TTITLE0=Circuitry Of The Wolf
TTITLE1=Chinaberry Tree
TTITLE2=Why Are You Looking Grave?
TTITLE3=Fox Cub
TTITLE4=Apocalypso
TTITLE5=Special
TTITLE6=The Zookeeper's Boy
TTITLE7=A Dark Design
TTITLE8=Saviours Of Jazz Ballet (Fear Me, December)
TTITLE9=An Envoy To The Open Fields
TTITLE10=Small Ambulance
TTITLE11=The Seething Rain Weeps For You (Uda Pruda)
TTITLE12=White Lips Kissed
TTITLE13=Louise Louisa
TTITLE14=Forever And Ever
TTITLE15=Shiroi Kuchibiruno Izanai
EXTD=
EXTT0=
EXTT1=
EXTT2=
EXTT3=
EXTT4=
EXTT5=
EXTT6=
EXTT7=
EXTT8=
EXTT9=
EXTT10=
EXTT11=
EXTT12=
EXTT13=
EXTT14=
EXTT15=
PLAYORDER=
